<svg width="118" height="123" viewBox="0 0 118 123" fill="none" xmlns="http://www.w3.org/2000/svg">
<path d="M90.5712 12.6866C72.7113 18.7564 51.6703 29.1241 36.9801 40.8629C8.56826 63.5667 -5.20026 74.5695 13.5298 98.008C32.2594 121.447 46.0283 110.445 74.4401 87.7404C89.1308 76.0016 103.883 57.7662 113.743 41.6853L90.5712 12.6866Z" fill="url(#paint0_linear_150_487)"/>
<path d="M19.2842 94.126L102.507 27.6229" stroke="#9090A6" stroke-width="1.26" stroke-miterlimit="10"/>
<path d="M101.514 31.1773C101.293 31.3536 100.971 31.3177 100.795 31.0972C100.619 30.8767 100.654 30.5546 100.875 30.3783C101.096 30.2019 101.418 30.2378 101.594 30.4583C101.77 30.6789 101.734 31.0009 101.514 31.1773Z" fill="#9090A6"/>
<path d="M88.4923 42.0245C88.2713 42.2008 87.9498 42.165 87.7733 41.9444C87.5973 41.7239 87.6329 41.4019 87.8538 41.2255C88.0744 41.0491 88.3964 41.085 88.5724 41.3055C88.7487 41.5265 88.7129 41.8481 88.4923 42.0245Z" fill="#9090A6"/>
<path d="M47.562 74.9356C47.3414 75.112 47.0194 75.0761 46.8434 74.8556C46.6671 74.6346 46.7029 74.313 46.9235 74.1366C47.144 73.9606 47.466 73.9961 47.6424 74.2171C47.8184 74.4376 47.7825 74.7592 47.562 74.9356Z" fill="#9090A6"/>
<path d="M32.9886 85.9358C32.7677 86.1122 32.4461 86.0763 32.2697 85.8553C32.0937 85.6348 32.1292 85.3132 32.3502 85.1368C32.5707 84.9604 32.8927 84.9963 33.0687 85.2168C33.2451 85.4378 33.2092 85.7594 32.9886 85.9358Z" fill="#9090A6"/>
<defs>
<linearGradient id="paint0_linear_150_487" x1="53.0116" y1="64.5979" x2="73.4892" y2="88.7108" gradientUnits="userSpaceOnUse">
<stop stop-color="#D8D8F6"/>
<stop offset="0.5" stop-color="#D1D1EB"/>
<stop offset="1" stop-color="#BEBEDA"/>
</linearGradient>
</defs>
</svg>
