<svg width="204" height="213" viewBox="0 0 204 213" fill="none" xmlns="http://www.w3.org/2000/svg">
<path d="M156.546 21.9279C125.677 32.4193 89.3086 50.3391 63.9174 70.629C14.8094 109.871 -8.98865 128.889 23.3851 169.401C55.758 209.913 79.5566 190.897 128.665 151.654C154.057 131.364 179.555 99.8453 196.597 72.0505L156.546 21.9279Z" fill="url(#paint0_linear_150_487)"/>
<path d="M33.3309 162.691L177.177 47.7445" stroke="#9090A6" stroke-width="1.26" stroke-miterlimit="10"/>
<path d="M175.459 53.8884C175.077 54.1932 174.521 54.1312 174.216 53.7499C173.912 53.3688 173.973 52.8122 174.355 52.5074C174.736 52.2025 175.293 52.2646 175.597 52.6457C175.902 53.0269 175.84 53.5835 175.459 53.8884Z" fill="#9090A6"/>
<path d="M152.953 72.6364C152.571 72.9412 152.015 72.8792 151.71 72.498C151.406 72.1169 151.467 71.5602 151.849 71.2554C152.23 70.9505 152.787 71.0126 153.091 71.3937C153.396 71.7757 153.334 72.3315 152.953 72.6364Z" fill="#9090A6"/>
<path d="M82.2083 129.522C81.827 129.827 81.2705 129.765 80.9663 129.383C80.6615 129.001 80.7235 128.446 81.1047 128.141C81.4858 127.837 82.0425 127.898 82.3473 128.28C82.6515 128.661 82.5895 129.217 82.2083 129.522Z" fill="#9090A6"/>
<path d="M57.0191 148.535C56.6372 148.84 56.0813 148.778 55.7765 148.396C55.4723 148.015 55.5336 147.459 55.9156 147.154C56.2968 146.849 56.8533 146.911 57.1575 147.292C57.4623 147.674 57.4003 148.23 57.0191 148.535Z" fill="#9090A6"/>
<defs>
<linearGradient id="paint0_linear_150_487" x1="91.6269" y1="111.653" x2="127.021" y2="153.331" gradientUnits="userSpaceOnUse">
<stop stop-color="#D8D8F6"/>
<stop offset="0.5" stop-color="#D1D1EB"/>
<stop offset="1" stop-color="#BEBEDA"/>
</linearGradient>
</defs>
</svg>
