<svg width="98" height="98" viewBox="0 0 98 98" fill="none" xmlns="http://www.w3.org/2000/svg">
<path d="M49.6622 10.2089C40.3418 10.4048 28.37 31.5127 18.63 60.3657L82.7748 59.0181C71.831 30.5993 58.9825 10.0131 49.6622 10.2089Z" fill="url(#paint0_linear_150_462)"/>
<path d="M20.9258 53.8281L80.2224 52.5821" stroke="#1C161D" stroke-opacity="0.2" stroke-width="1.26" stroke-miterlimit="10"/>
<path d="M30.5132 56.789C30.5237 57.277 30.1362 57.6812 29.6486 57.6912C29.1601 57.7012 28.7563 57.3142 28.7459 56.8261C28.7359 56.3385 29.1229 55.9338 29.6115 55.9239C30.099 55.9139 30.5028 56.3009 30.5132 56.789Z" fill="#1C161D" fill-opacity="0.2"/>
<path d="M55.3279 56.2672C55.3379 56.7558 54.9509 57.1595 54.4628 57.17C53.9748 57.1794 53.5705 56.7929 53.5606 56.3044C53.5506 55.8168 53.9376 55.4121 54.4257 55.4026C54.9137 55.3922 55.3175 55.7792 55.3279 56.2672Z" fill="#1C161D" fill-opacity="0.2"/>
<path d="M78.4798 55.7804C78.4898 56.2689 78.1027 56.6737 77.6147 56.6841C77.1271 56.6941 76.7229 56.3056 76.7125 55.8175C76.7025 55.33 77.09 54.9268 77.5775 54.9168C78.0656 54.9063 78.4694 55.2923 78.4798 55.7804Z" fill="#1C161D" fill-opacity="0.2"/>
<defs>
<linearGradient id="paint0_linear_150_462" x1="68.7643" y1="38.9426" x2="45.5753" y2="39.8269" gradientUnits="userSpaceOnUse">
<stop stop-color="#9191A6"/>
<stop offset="0.5" stop-color="#A8A8C2"/>
<stop offset="1" stop-color="#BEBEDA"/>
</linearGradient>
</defs>
</svg>
