<svg width="35" height="35" viewBox="0 0 35 35" fill="none" xmlns="http://www.w3.org/2000/svg">
<path d="M28.9952 7.11816L27.922 6.04491C27.6187 5.74159 27.0587 5.78827 26.7087 6.20819L22.9751 9.91814C21.295 9.19489 19.4518 8.84489 17.5151 8.84489C11.7515 8.86813 6.75853 12.2281 4.35503 17.0584C4.21499 17.3617 4.21499 17.7349 4.35503 17.9916C5.47493 20.2783 7.15504 22.1683 9.25504 23.5916L6.19838 26.6949C5.84838 27.0449 5.8017 27.6048 6.0351 27.9082L7.10836 28.9814C7.41168 29.2848 7.97166 29.2381 8.32166 28.8182L28.8082 8.33166C29.2516 7.98185 29.2982 7.42191 28.9949 7.11856L28.9952 7.11816ZM18.7517 14.1647C18.355 14.0713 17.9351 13.9547 17.5384 13.9547C15.555 13.9547 13.9685 15.5414 13.9685 17.5246C13.9685 17.9213 14.0619 18.3412 14.1785 18.7379L12.615 20.2779C12.1484 19.4613 11.8917 18.5512 11.8917 17.5246C11.8917 14.4213 14.3884 11.9246 17.4917 11.9246C18.5185 11.9246 19.4284 12.1813 20.245 12.6479L18.7517 14.1647Z" fill="#666666" fill-opacity="0.8"/>
<path d="M30.6753 17.058C29.8587 15.4246 28.7852 13.9547 27.4554 12.7646L23.1153 17.058V17.5246C23.1153 20.6279 20.6186 23.1246 17.5153 23.1246H17.0487L14.2954 25.8779C15.3222 26.0879 16.3954 26.2279 17.4454 26.2279C23.2089 26.2279 28.2019 22.8679 30.6055 18.0144C30.8154 17.6876 30.8154 17.3611 30.6754 17.0577L30.6753 17.058Z" fill="#666666" fill-opacity="0.8"/>
</svg>
