<svg width="74" height="77" viewBox="0 0 74 77" fill="none" xmlns="http://www.w3.org/2000/svg">
<path d="M56.4619 64.8986C42.8526 75.774 23.0024 73.5568 12.127 59.9475C1.25232 46.3383 3.46851 26.4894 17.0779 15.614C30.6879 4.73867 50.5367 6.95555 61.4128 20.565C72.2882 34.1744 70.0713 54.0231 56.4619 64.8986Z" fill="#1C161D" fill-opacity="0.2"/>
<path d="M56.8769 61.1796C43.2676 72.0551 23.4187 69.8389 12.5434 56.2288C1.66798 42.6195 3.88487 22.7707 17.4935 11.8951C31.1036 1.01986 50.9524 3.23674 61.8278 16.8461C72.7032 30.4554 70.4863 50.3042 56.8769 61.1796Z" fill="white"/>
<path d="M53.3153 56.7228C42.1678 65.6313 25.908 63.816 17.0002 52.6686C8.0918 41.5203 9.90767 25.2613 21.0551 16.3535C32.2033 7.44514 48.4617 9.26019 57.3701 20.4084C66.2785 31.5567 64.4629 47.8143 53.3153 56.7228Z" fill="url(#paint0_linear_150_434)"/>
<path d="M49.7462 52.2577C41.0641 59.195 28.4026 57.7814 21.4647 49.0992C14.5266 40.4177 15.9409 27.7556 24.6223 20.8183C33.3045 13.8803 45.9668 15.294 52.904 23.9761C59.842 32.6576 58.4277 45.3197 49.7462 52.2577Z" fill="#1BB4DF"/>
<path d="M42.5813 32.2034C39.9864 34.2776 36.2008 33.8543 34.1267 31.2594C32.0526 28.6638 32.4757 24.879 35.0707 22.8048C37.6663 20.7307 41.4512 21.1532 43.5253 23.7488C45.5994 26.3444 45.1769 30.1294 42.5813 32.2034Z" fill="white"/>
<defs>
<linearGradient id="paint0_linear_150_434" x1="36.5764" y1="43.1796" x2="36.1007" y2="21.6369" gradientUnits="userSpaceOnUse">
<stop stop-color="#8A8AFF"/>
<stop offset="0.5" stop-color="#6BDFFF"/>
<stop offset="1" stop-color="#52D9FF"/>
</linearGradient>
</defs>
</svg>
