<svg width="35" height="35" viewBox="0 0 35 35" fill="none" xmlns="http://www.w3.org/2000/svg">
<path d="M17.5 8.75C11.6735 8.75 6.67783 12.2894 4.52467 17.3341C4.42526 17.567 4.42526 17.8307 4.52467 18.0636C6.67783 23.1084 11.6735 26.6477 17.5 26.6477C23.3265 26.6477 28.3222 23.1084 30.4753 18.0636C30.5747 17.8307 30.5747 17.567 30.4753 17.3341C28.3222 12.2894 23.3265 8.75 17.5 8.75ZM17.5 23.6648C14.2068 23.6648 11.5341 20.992 11.5341 17.6989C11.5341 14.4057 14.2068 11.733 17.5 11.733C20.7932 11.733 23.4659 14.4057 23.4659 17.6989C23.4659 20.992 20.7932 23.6648 17.5 23.6648ZM17.5 14.1193C15.5193 14.1193 13.9205 15.7182 13.9205 17.6989C13.9205 19.6795 15.5193 21.2784 17.5 21.2784C19.4807 21.2784 21.0795 19.6795 21.0795 17.6989C21.0795 15.7182 19.4807 14.1193 17.5 14.1193Z" fill="#666666"/>
</svg>
